<?xml version="1.0" encoding="UTF-8" standalone="no"?>
<svg
   xmlns:dc="http://purl.org/dc/elements/1.1/"
   xmlns:cc="http://creativecommons.org/ns#"
   xmlns:rdf="http://www.w3.org/1999/02/22-rdf-syntax-ns#"
   xmlns:svg="http://www.w3.org/2000/svg"
   xmlns="http://www.w3.org/2000/svg"
   xmlns:sodipodi="http://sodipodi.sourceforge.net/DTD/sodipodi-0.dtd"
   xmlns:inkscape="http://www.inkscape.org/namespaces/inkscape"
   width="48"
   height="48"
   viewBox="0 0 48 48"
   version="1.1"
   id="svg837"
   sodipodi:docname="aspect_lock.svg"
   inkscape:version="0.92+devel (4eade15e6d, 2018-11-22, custom)">
  <metadata
     id="metadata843">
    <rdf:RDF>
      <cc:Work
         rdf:about="">
        <dc:format>image/svg+xml</dc:format>
        <dc:type
           rdf:resource="http://purl.org/dc/dcmitype/StillImage" />
        <dc:title></dc:title>
      </cc:Work>
    </rdf:RDF>
  </metadata>
  <defs
     id="defs841" />
  <sodipodi:namedview
     pagecolor="#ffffff"
     bordercolor="#666666"
     inkscape:document-rotation="0"
     borderopacity="1"
     objecttolerance="10"
     gridtolerance="10"
     guidetolerance="10"
     inkscape:pageopacity="0"
     inkscape:pageshadow="2"
     inkscape:window-width="1600"
     inkscape:window-height="1145"
     id="namedview839"
     showgrid="false"
     inkscape:zoom="19.726744"
     inkscape:cx="24"
     inkscape:cy="24"
     inkscape:window-x="0"
     inkscape:window-y="27"
     inkscape:window-maximized="1"
     inkscape:current-layer="svg837" />
  <path
     d="M 6,6 C 3.79,6 2,7.79 2,10 v 28 c 0,2.21 1.79,4 4,4 H 28.617188 V 38.029297 H 6 V 9.9707031 H 42 V 24.291016 c 1.616581,0.633032 3.025163,1.963206 4,3.777343 V 10 C 46,7.79 44.21,6 42,6 Z m 4,8 v 10 h 4 v -6 h 6 v -4 z m 18,6 v 6 h -6 v 4 H 32 V 20 Z"
     id="path833"
     inkscape:connector-curvature="0"
     sodipodi:nodetypes="sssscccccccssscccccccccccccc" />
  <path
     d="M0 0h48v48H0z"
     fill="none"
     id="path835" />
  <path
     inkscape:connector-curvature="0"
     d="m 45.942702,33.901128 h -1 v -2 c 0,-2.76 -2.24,-5 -5,-5 -2.76,0 -5,2.24 -5,5 v 2 h -1 c -1.1,0 -2,0.9 -2,2 v 10 c 0,1.1 0.9,2 2,2 h 12 c 1.1,0 2,-0.9 2,-2 v -10 c 0,-1.1 -0.9,-2 -2,-2 z m -6,9 c -1.1,0 -2,-0.9 -2,-2 0,-1.1 0.9,-2 2,-2 1.1,0 2,0.9 2,2 0,1.1 -0.9,2 -2,2 z m 3.1,-9 h -6.2 v -2 c 0,-1.71 1.39,-3.1 3.1,-3.1 1.71,0 3.1,1.39 3.1,3.1 z"
     id="path833-6" />
</svg>
