<?xml version="1.0" encoding="UTF-8" standalone="no"?>
<svg
   xmlns:dc="http://purl.org/dc/elements/1.1/"
   xmlns:cc="http://creativecommons.org/ns#"
   xmlns:rdf="http://www.w3.org/1999/02/22-rdf-syntax-ns#"
   xmlns:svg="http://www.w3.org/2000/svg"
   xmlns="http://www.w3.org/2000/svg"
   xmlns:sodipodi="http://sodipodi.sourceforge.net/DTD/sodipodi-0.dtd"
   xmlns:inkscape="http://www.inkscape.org/namespaces/inkscape"
   width="48"
   height="48"
   viewBox="0 0 48 48"
   version="1.1"
   id="svg4"
   inkscape:version="0.91+devel r14904 custom"
   sodipodi:docname="collapse.svg">
  <metadata
     id="metadata10">
    <rdf:RDF>
      <cc:Work
         rdf:about="">
        <dc:format>image/svg+xml</dc:format>
        <dc:type
           rdf:resource="http://purl.org/dc/dcmitype/StillImage" />
        <dc:title></dc:title>
      </cc:Work>
    </rdf:RDF>
  </metadata>
  <defs
     id="defs8" />
  <sodipodi:namedview
     pagecolor="#ffffff"
     bordercolor="#666666"
     borderopacity="1"
     objecttolerance="10"
     gridtolerance="10"
     guidetolerance="10"
     inkscape:pageopacity="0"
     inkscape:pageshadow="2"
     inkscape:window-width="1535"
     inkscape:window-height="1176"
     id="namedview6"
     showgrid="false"
     inkscape:zoom="16.843424"
     inkscape:cx="24"
     inkscape:cy="24"
     inkscape:window-x="65"
     inkscape:window-y="24"
     inkscape:window-maximized="1"
     inkscape:current-layer="svg4" />
  <path
     d="M 8,12 H 4 v 28 c 0,2.21 1.79,4 4,4 H 36 V 40 H 8 Z M 40,4 H 16 c -2.21,0 -4,1.79 -4,4 v 24 c 0,2.21 1.79,4 4,4 h 24 c 2.21,0 4,-1.79 4,-4 V 8 C 44,5.79 42.21,4 40,4 Z m -2,18 c -20,0 -4.350075,0 -20,0 v -4 c 20,0 5.256851,0 20,0 z"
     id="path2"
     inkscape:connector-curvature="0"
     sodipodi:nodetypes="ccssccccsssssssssccccc" />
</svg>
