<?xml version="1.0" encoding="UTF-8" standalone="no"?>
<svg
   width="48"
   height="48"
   viewBox="0 0 48 48"
   version="1.1"
   id="svg839"
   sodipodi:docname="config_time.svg"
   inkscape:version="1.1.2 (0a00cf5339, 2022-02-04)"
   xmlns:inkscape="http://www.inkscape.org/namespaces/inkscape"
   xmlns:sodipodi="http://sodipodi.sourceforge.net/DTD/sodipodi-0.dtd"
   xmlns="http://www.w3.org/2000/svg"
   xmlns:svg="http://www.w3.org/2000/svg"
   xmlns:rdf="http://www.w3.org/1999/02/22-rdf-syntax-ns#"
   xmlns:cc="http://creativecommons.org/ns#"
   xmlns:dc="http://purl.org/dc/elements/1.1/">
  <metadata
     id="metadata845">
    <rdf:RDF>
      <cc:Work
         rdf:about="">
        <dc:format>image/svg+xml</dc:format>
        <dc:type
           rdf:resource="http://purl.org/dc/dcmitype/StillImage" />
      </cc:Work>
    </rdf:RDF>
  </metadata>
  <defs
     id="defs843" />
  <sodipodi:namedview
     pagecolor="#ffffff"
     bordercolor="#666666"
     inkscape:document-rotation="0"
     borderopacity="1"
     objecttolerance="10"
     gridtolerance="10"
     guidetolerance="10"
     inkscape:pageopacity="0"
     inkscape:pageshadow="2"
     inkscape:window-width="1850"
     inkscape:window-height="1136"
     id="namedview841"
     showgrid="false"
     inkscape:zoom="14.024284"
     inkscape:cx="26.382808"
     inkscape:cy="25.420192"
     inkscape:window-x="70"
     inkscape:window-y="27"
     inkscape:window-maximized="1"
     inkscape:current-layer="svg839"
     showguides="true"
     inkscape:pagecheckerboard="0"
     inkscape:guide-bbox="true">
    <sodipodi:guide
       position="5.9183056,24.611997"
       orientation="0,-1"
       id="guide2705" />
    <sodipodi:guide
       position="22.03321,37.803401"
       orientation="1,0"
       id="guide2707" />
  </sodipodi:namedview>
  <path
     id="path4"
     style="stroke-width:2.27777"
     d="M 22.140625 2.5195312 C 10.820099 2.5195312 1.640625 11.699006 1.640625 23.019531 C 1.640625 34.340057 10.797321 43.517578 22.140625 43.517578 C 24.535085 43.517578 26.832621 43.065672 28.970703 42.261719 C 28.265505 41.133016 27.776267 39.854684 27.568359 38.484375 C 25.851626 39.164526 24.02215 39.544922 22.140625 39.544922 C 13.325648 39.544922 5.6972656 31.834508 5.6972656 23.019531 C 5.6972656 14.204555 13.325648 6.4921875 22.140625 6.4921875 C 30.955601 6.4921875 38.666016 13.620571 38.666016 22.435547 C 38.666016 23.983975 38.424462 25.516087 37.984375 26.990234 C 39.409986 27.064543 40.754358 27.438063 41.960938 28.048828 C 42.410907 26.410565 42.65145 24.7219 42.640625 23.019531 C 42.669908 10.746982 32.426926 2.5370575 22.140625 2.5195312 z " />
  <path
     id="path1427"
     d="m 37.780362,27.314393 c -5.52,0 -10,4.479999 -10,10 0,5.52 4.48,10 10,10 5.52,0 10,-4.48 10,-10 0,-5.520001 -4.48,-10 -10,-10 z m -1.896484,2.21289 h 3.792968 l 0.357422,2.382813 h -0.0078 c 0.482834,0.202483 0.927037,0.467772 1.332019,0.779297 l -0.0078,-0.0078 2.236329,-0.904297 1.892578,3.287109 -1.900391,1.494142 -0.0078,-0.01563 c 0.03115,0.256999 0.05469,0.506697 0.05469,0.771483 0,0.264787 -0.03135,0.530111 -0.0625,0.787109 l 0.0078,-0.01563 1.642578,1.292969 c 0.147968,0.109034 0.257812,0.201172 0.257812,0.201172 l -1.892578,3.271484 -2.24414,-0.896484 0.01562,-0.0293 c -0.412754,0.319301 -0.864811,0.582673 -1.347656,0.785156 h 0.0078 l -0.294922,2.064454 c -0.02337,0.186908 -0.04687,0.326171 -0.04687,0.326171 H 35.89169 l -0.349609,-2.398436 h 0.02344 C 35.074888,42.500581 34.63062,42.23721 34.217865,41.917909 l 0.01563,0.0293 -2.244141,0.896485 -1.892578,-3.271485 0.257813,-0.201171 1.634765,-1.285157 0.0078,0.01563 c -0.03894,-0.256998 -0.0625,-0.522323 -0.0625,-0.787109 0,-0.264787 0.02354,-0.514485 0.05469,-0.771484 l -0.0078,0.01563 -1.90039,-1.494155 1.900391,-3.28711 2.24414,0.91211 c 0.402881,-0.308937 0.844447,-0.570291 1.324219,-0.771485 h -0.0078 z m 1.892578,5.060547 c -1.503052,0 -2.726563,1.223511 -2.726563,2.726563 0,1.503051 1.223511,2.726562 2.726563,2.726562 1.503051,0 2.726562,-1.223511 2.726562,-2.726562 0,-1.503052 -1.223511,-2.726563 -2.726562,-2.726563 z" />
  <path
     d="m 20.391517,10.947251 h 3.315953 v 13.263815 l -11.605838,6.963502 -1.657977,-2.719082 9.947862,-5.902398 z"
     id="path6"
     style="stroke-width:2.21064" />
</svg>
