<?xml version="1.0" encoding="UTF-8" standalone="no"?>
<svg
   xmlns:dc="http://purl.org/dc/elements/1.1/"
   xmlns:cc="http://creativecommons.org/ns#"
   xmlns:rdf="http://www.w3.org/1999/02/22-rdf-syntax-ns#"
   xmlns:svg="http://www.w3.org/2000/svg"
   xmlns="http://www.w3.org/2000/svg"
   xmlns:sodipodi="http://sodipodi.sourceforge.net/DTD/sodipodi-0.dtd"
   xmlns:inkscape="http://www.inkscape.org/namespaces/inkscape"
   width="48"
   height="48"
   viewBox="0 0 48 48"
   version="1.1"
   id="svg835"
   sodipodi:docname="rec_stop.svg"
   inkscape:version="0.92+devel (4eade15e6d, 2018-11-22, custom)">
  <metadata
     id="metadata841">
    <rdf:RDF>
      <cc:Work
         rdf:about="">
        <dc:format>image/svg+xml</dc:format>
        <dc:type
           rdf:resource="http://purl.org/dc/dcmitype/StillImage" />
      </cc:Work>
    </rdf:RDF>
  </metadata>
  <defs
     id="defs839" />
  <sodipodi:namedview
     pagecolor="#ffffff"
     bordercolor="#666666"
     inkscape:document-rotation="0"
     borderopacity="1"
     objecttolerance="10"
     gridtolerance="10"
     guidetolerance="10"
     inkscape:pageopacity="0"
     inkscape:pageshadow="2"
     inkscape:window-width="1600"
     inkscape:window-height="1145"
     id="namedview837"
     showgrid="false"
     inkscape:zoom="19.726744"
     inkscape:cx="24"
     inkscape:cy="24"
     inkscape:window-x="0"
     inkscape:window-y="27"
     inkscape:window-maximized="1"
     inkscape:current-layer="svg835"
     showguides="true"
     inkscape:guide-bbox="true">
    <sodipodi:guide
       position="7.2997347,32.133215"
       orientation="0,-1"
       id="guide869" />
    <sodipodi:guide
       position="12.774536,15.86089"
       orientation="0,-1"
       id="guide871" />
    <sodipodi:guide
       position="15.866785,37.658709"
       orientation="1,0"
       id="guide873" />
    <sodipodi:guide
       position="32.088417,38.419098"
       orientation="1,0"
       id="guide875" />
  </sodipodi:namedview>
  <path
     d="M 24 4 C 12.95 4 4 12.95 4 24 C 4 35.05 12.95 44 24 44 C 35.05 44 44 35.05 44 24 C 44 12.95 35.05 4 24 4 z M 24 9.9160156 C 28.46471 9.9158967 32.084103 13.53529 32.083984 18 C 32.084103 22.46471 28.46471 26.084103 24 26.083984 C 19.53529 26.084103 15.915897 22.46471 15.916016 18 C 15.915897 13.53529 19.53529 9.9158967 24 9.9160156 z M 15.082031 30.84375 L 32.814453 30.84375 L 32.814453 37.455078 L 15.082031 37.455078 L 15.082031 30.84375 z "
     id="path833" />
</svg>
