<?xml version="1.0" encoding="UTF-8" standalone="no"?>
<svg
   xmlns:dc="http://purl.org/dc/elements/1.1/"
   xmlns:cc="http://creativecommons.org/ns#"
   xmlns:rdf="http://www.w3.org/1999/02/22-rdf-syntax-ns#"
   xmlns:svg="http://www.w3.org/2000/svg"
   xmlns="http://www.w3.org/2000/svg"
   xmlns:sodipodi="http://sodipodi.sourceforge.net/DTD/sodipodi-0.dtd"
   xmlns:inkscape="http://www.inkscape.org/namespaces/inkscape"
   width="48"
   height="48"
   viewBox="0 0 48 48"
   version="1.1"
   id="svg837"
   sodipodi:docname="save_as.svg"
   inkscape:version="0.92.5 (2060ec1f9f, 2020-04-08)">
  <metadata
     id="metadata843">
    <rdf:RDF>
      <cc:Work
         rdf:about="">
        <dc:format>image/svg+xml</dc:format>
        <dc:type
           rdf:resource="http://purl.org/dc/dcmitype/StillImage" />
        <dc:title></dc:title>
      </cc:Work>
    </rdf:RDF>
  </metadata>
  <defs
     id="defs841" />
  <sodipodi:namedview
     pagecolor="#ffffff"
     bordercolor="#666666"
     inkscape:document-rotation="0"
     borderopacity="1"
     objecttolerance="10"
     gridtolerance="10"
     guidetolerance="10"
     inkscape:pageopacity="0"
     inkscape:pageshadow="2"
     inkscape:window-width="1848"
     inkscape:window-height="1136"
     id="namedview839"
     showgrid="false"
     inkscape:zoom="12.99654"
     inkscape:cx="24"
     inkscape:cy="24"
     inkscape:window-x="72"
     inkscape:window-y="27"
     inkscape:window-maximized="1"
     inkscape:current-layer="layer2" />
  <path
     fill="none"
     d="M 0,0 H 24 V 24 H 0 Z"
     id="path833"
     inkscape:connector-curvature="0" />
  <g
     inkscape:groupmode="layer"
     id="layer1"
     inkscape:label="Layer 1"
     style="display:none">
    <path
       style="stroke-width:2.21452999"
       d="M 10.429688,2 C 7.993703,2 6,3.9937027 6,6.4296875 V 41.861328 c 0,2.435985 1.9702652,4.429688 4.40625,4.429688 h 2.269531 c -0.251816,-0.444829 -0.408203,-0.95015 -0.408203,-1.498047 V 43.15625 H 9.1347656 V 5.1347656 H 27.275391 V 16.15625 h 11.021484 v 14.140625 h 3.134766 V 15.287109 L 28.144531,2 Z"
       id="path835"
       inkscape:connector-curvature="0"
       sodipodi:nodetypes="sssscsccccccccccs" />
    <path
       d="M 44.764351,33.358162 V 44.792327 H 15.330186 V 33.358162 h 29.434165 m 0,-3.062024 H 15.330186 c -1.691768,0 -3.062024,1.370256 -3.062024,3.062024 v 11.434165 c 0,1.691768 1.370256,3.062024 3.062024,3.062024 h 29.434165 c 1.691768,0 3.062024,-1.370256 3.062024,-3.062024 V 33.358162 c 0,-1.691768 -1.370256,-3.062024 -3.062024,-3.062024 z"
       id="path939"
       inkscape:connector-curvature="0"
       style="opacity:0.3;stroke-width:0.76550603"
       sodipodi:nodetypes="cccccsssssssss" />
    <rect
       style="color:#000000;overflow:visible;opacity:0.3;fill:#000000;fill-opacity:1;stroke-width:1.53974998"
       id="rect1021"
       width="13.343598"
       height="7.4498167"
       x="17.593222"
       y="35.30006" />
    <rect
       style="color:#000000;overflow:visible;opacity:1;fill:#000000;fill-opacity:1;stroke-width:2"
       id="rect1023"
       width="3.3887129"
       height="9.5397453"
       x="33.698002"
       y="34.131409" />
  </g>
  <g
     inkscape:groupmode="layer"
     id="layer3"
     inkscape:label="Layer 3"
     style="display:inline">
    <path
       d="M 44.818777,33.537155 V 44.97132 H 15.384612 V 33.537155 h 29.434165 m 0,-3.062024 H 15.384612 c -1.691768,0 -3.062024,1.370256 -3.062024,3.062024 V 44.97132 c 0,1.691768 1.370256,3.062024 3.062024,3.062024 h 29.434165 c 1.691768,0 3.062024,-1.370256 3.062024,-3.062024 V 33.537155 c 0,-1.691768 -1.370256,-3.062024 -3.062024,-3.062024 z"
       id="path939-9"
       inkscape:connector-curvature="0"
       style="display:inline;opacity:0.3;stroke-width:0.76550603"
       sodipodi:nodetypes="cccccsssssssss" />
    <rect
       style="color:#000000;display:inline;overflow:visible;opacity:0.3;fill:#000000;fill-opacity:1;stroke-width:1.53974998"
       id="rect1021-0"
       width="13.343598"
       height="7.4498167"
       x="17.647648"
       y="35.479053" />
    <rect
       style="color:#000000;display:inline;overflow:visible;opacity:1;fill:#000000;fill-opacity:1;stroke-width:2"
       id="rect1023-9"
       width="3.3887129"
       height="9.5397453"
       x="33.75243"
       y="34.310402" />
  </g>
  <g
     inkscape:groupmode="layer"
     id="layer2"
     inkscape:label="Layer 2"
     style="display:inline">
    <path
       style="stroke-width:1.96045208"
       d="M 10.683594 5.7460938 C 8.5074926 5.7460938 6.7636719 7.5095177 6.7636719 9.6660156 L 6.7636719 37.113281 C 6.7636719 39.269778 8.5074926 41.033203 10.683594 41.033203 L 12.251953 41.033203 L 12.251953 33.8125 C 12.251953 31.959144 13.7443 30.466797 15.597656 30.466797 L 18.580078 30.466797 C 18.954315 27.576153 21.411708 25.349609 24.40625 25.349609 C 27.400717 25.349609 29.858093 27.576256 30.232422 30.466797 L 42.050781 30.466797 L 42.050781 13.587891 L 34.208984 5.7460938 L 10.683594 5.7460938 z M 10.683594 9.6660156 L 30.289062 9.6660156 L 30.289062 17.507812 L 10.683594 17.507812 L 10.683594 9.6660156 z "
       id="path4" />
  </g>
</svg>
