<?xml version="1.0" encoding="UTF-8" standalone="no"?>
<svg
   xmlns:dc="http://purl.org/dc/elements/1.1/"
   xmlns:cc="http://creativecommons.org/ns#"
   xmlns:rdf="http://www.w3.org/1999/02/22-rdf-syntax-ns#"
   xmlns:svg="http://www.w3.org/2000/svg"
   xmlns="http://www.w3.org/2000/svg"
   xmlns:sodipodi="http://sodipodi.sourceforge.net/DTD/sodipodi-0.dtd"
   xmlns:inkscape="http://www.inkscape.org/namespaces/inkscape"
   width="48"
   height="48"
   viewBox="0 0 48 48"
   version="1.1"
   id="svg1414"
   sodipodi:docname="Serif.svg"
   inkscape:version="0.92+devel (4eade15e6d, 2018-11-22, custom)">
  <metadata
     id="metadata1420">
    <rdf:RDF>
      <cc:Work
         rdf:about="">
        <dc:format>image/svg+xml</dc:format>
        <dc:type
           rdf:resource="http://purl.org/dc/dcmitype/StillImage" />
        <dc:title></dc:title>
      </cc:Work>
    </rdf:RDF>
  </metadata>
  <defs
     id="defs1418" />
  <sodipodi:namedview
     pagecolor="#ffffff"
     bordercolor="#666666"
     inkscape:document-rotation="0"
     borderopacity="1"
     objecttolerance="10"
     gridtolerance="10"
     guidetolerance="10"
     inkscape:pageopacity="0"
     inkscape:pageshadow="2"
     inkscape:window-width="1600"
     inkscape:window-height="1145"
     id="namedview1416"
     showgrid="false"
     inkscape:zoom="7.0853164"
     inkscape:cx="21.165112"
     inkscape:cy="42.492024"
     inkscape:window-x="0"
     inkscape:window-y="27"
     inkscape:window-maximized="1"
     inkscape:current-layer="svg1414"
     showguides="true"
     inkscape:guide-bbox="true">
    <sodipodi:guide
       position="-36.131061,40.09633"
       orientation="0,-1"
       id="guide859" />
  </sodipodi:namedview>
  <g
     aria-label="&quot;"
     style="font-style:normal;font-variant:normal;font-weight:normal;font-stretch:normal;font-size:14px;line-height:200px;font-family:'Times New Roman';-inkscape-font-specification:'Times New Roman, ';text-align:start;letter-spacing:0px;word-spacing:0px;writing-mode:lr-tb;text-anchor:start;fill:#000000;fill-opacity:1;stroke:none;stroke-width:1px;stroke-linecap:butt;stroke-linejoin:miter;stroke-opacity:1"
     id="text840"
     transform="translate(0.4984065,0.83301296)">
    <path
       d="m 9.9386082,34.30471 q 0,-0.413086 0.3671878,-0.780273 3.488281,-3.029297 5.461914,-7.435547 1.973633,-4.40625 1.973633,-9.087891 0,-0.963867 -0.0918,-1.422851 -1.331055,1.790039 -3.947266,1.790039 -2.111328,0 -3.625977,-1.514648 -1.514648,-1.514649 -1.514648,-3.671875 0,-2.2031255 1.514648,-3.6718755 1.514649,-1.46875 3.625977,-1.46875 2.34082,0 3.80957,1.5605469 1.46875,1.5605466 2.06543,3.9013676 0.642578,2.34082 0.642578,4.498046 0,5.186524 -2.249023,10.097657 -2.203125,4.911133 -6.058594,8.307617 -0.367188,0.183594 -0.550781,0.183594 -0.504883,0 -0.963867,-0.413086 Q 9.9386082,34.763695 9.9386082,34.30471 Z m 18.2675778,0 q 0,-0.413086 0.367188,-0.780273 3.580078,-3.121094 5.507812,-7.435547 1.927735,-4.360351 1.927735,-9.087891 0,-0.963867 -0.0918,-1.422851 -1.376953,1.790039 -3.947266,1.790039 -2.157226,0 -3.671875,-1.514648 -1.514648,-1.514649 -1.514648,-3.671875 0,-2.2031255 1.514648,-3.6718755 1.514649,-1.46875 3.671875,-1.46875 2.294922,0 3.763672,1.5605469 1.46875,1.5605466 2.06543,3.9013676 0.642578,2.34082 0.642578,4.498046 0,5.186524 -2.249024,10.097657 -2.203125,4.865234 -6.012695,8.307617 -0.367187,0.183594 -0.59668,0.183594 -0.458984,0 -0.917968,-0.413086 -0.458985,-0.413086 -0.458985,-0.872071 z"
       style="font-style:normal;font-variant:normal;font-weight:normal;font-stretch:normal;font-size:94px;font-family:cmr10;-inkscape-font-specification:'cmr10 Normal';font-variant-ligatures:normal;font-variant-caps:normal;font-variant-numeric:normal;font-variant-east-asian:normal"
       id="path842"
       inkscape:connector-curvature="0" />
  </g>
</svg>
