<?xml version="1.0" encoding="UTF-8" standalone="no"?>
<svg
   xmlns:dc="http://purl.org/dc/elements/1.1/"
   xmlns:cc="http://creativecommons.org/ns#"
   xmlns:rdf="http://www.w3.org/1999/02/22-rdf-syntax-ns#"
   xmlns:svg="http://www.w3.org/2000/svg"
   xmlns="http://www.w3.org/2000/svg"
   xmlns:xlink="http://www.w3.org/1999/xlink"
   xmlns:sodipodi="http://sodipodi.sourceforge.net/DTD/sodipodi-0.dtd"
   xmlns:inkscape="http://www.inkscape.org/namespaces/inkscape"
   width="48"
   height="48"
   viewBox="0 0 48 48"
   version="1.1"
   id="svg841"
   sodipodi:docname="tabelle_dynamic.svg"
   inkscape:version="0.92+devel (4eade15e6d, 2018-11-22, custom)">
  <metadata
     id="metadata845">
    <rdf:RDF>
      <cc:Work
         rdf:about="">
        <dc:format>image/svg+xml</dc:format>
        <dc:type
           rdf:resource="http://purl.org/dc/dcmitype/StillImage" />
        <dc:title></dc:title>
      </cc:Work>
    </rdf:RDF>
  </metadata>
  <sodipodi:namedview
     pagecolor="#ffffff"
     bordercolor="#666666"
     inkscape:document-rotation="0"
     borderopacity="1"
     objecttolerance="10"
     gridtolerance="10"
     guidetolerance="10"
     inkscape:pageopacity="0"
     inkscape:pageshadow="2"
     inkscape:window-width="1600"
     inkscape:window-height="1145"
     id="namedview843"
     showgrid="false"
     inkscape:zoom="19.833333"
     inkscape:cx="24"
     inkscape:cy="24"
     inkscape:window-x="0"
     inkscape:window-y="27"
     inkscape:window-maximized="1"
     inkscape:current-layer="svg841" />
  <defs
     id="defs834">
    <path
       id="a"
       d="M 0,0 H 24 V 24 H 0 Z"
       inkscape:connector-curvature="0" />
  </defs>
  <clipPath
     id="b">
    <use
       xlink:href="#a"
       overflow="visible"
       id="use836"
       x="0"
       y="0"
       width="100%"
       height="100%" />
  </clipPath>
  <path
     clip-path="url(#b)"
     d="M 12,2 C 6.5,2 2,6.5 2,12 2,17.5 6.5,22 12,22 17.5,22 22,17.5 22,12 22,6.5 17.5,2 12,2 Z M 16.2,16.2 11,13 V 7 h 1.5 v 5.2 l 4.5,2.7 z"
     id="path839"
     inkscape:connector-curvature="0"
     transform="translate(25.948716,25.902995)" />
  <path
     style="opacity:1;stroke-width:2.21192;stop-opacity:1"
     d="M 7.3007812 2.890625 C 4.8676742 2.890625 2.8769531 4.8813461 2.8769531 7.3144531 L 2.8769531 38.28125 C 2.8769531 40.714357 4.8676743 42.705078 7.3007812 42.705078 L 29.185547 42.705078 C 28.642178 41.721306 28.268376 40.635087 28.082031 39.484375 L 19.033203 39.484375 L 19.033203 33.738281 L 28.802734 33.738281 L 28.802734 33.826172 C 29.463719 32.335682 30.476752 31.039498 31.738281 30.039062 L 31.738281 24.482422 L 41.683594 24.482422 L 41.683594 28.609375 C 42.893213 29.098856 43.983899 29.816812 44.904297 30.710938 L 44.904297 7.3144531 C 44.904297 4.8813461 42.913576 2.890625 40.480469 2.890625 L 7.3007812 2.890625 z M 6.0976562 6.1113281 L 41.683594 6.1113281 L 41.683594 11.898438 L 6.0976562 11.898438 L 6.0976562 6.1113281 z M 6.0976562 15.046875 L 16.095703 15.046875 L 16.095703 21.421875 L 6.0976562 21.421875 L 6.0976562 15.046875 z M 19.033203 15.046875 L 28.802734 15.046875 L 28.802734 21.421875 L 19.033203 21.421875 L 19.033203 15.046875 z M 31.738281 15.046875 L 41.683594 15.046875 L 41.683594 21.421875 L 31.738281 21.421875 L 31.738281 15.046875 z M 6.0976562 24.482422 L 16.095703 24.482422 L 16.095703 30.679688 L 6.0976562 30.679688 L 6.0976562 24.482422 z M 19.033203 24.482422 L 28.802734 24.482422 L 28.802734 30.679688 L 19.033203 30.679688 L 19.033203 24.482422 z M 6.0976562 33.738281 L 16.095703 33.738281 L 16.095703 39.484375 L 6.0976562 39.484375 L 6.0976562 33.738281 z "
     id="path837" />
</svg>
