<?xml version="1.0" encoding="UTF-8" standalone="no"?>
<svg
   xmlns:dc="http://purl.org/dc/elements/1.1/"
   xmlns:cc="http://creativecommons.org/ns#"
   xmlns:rdf="http://www.w3.org/1999/02/22-rdf-syntax-ns#"
   xmlns:svg="http://www.w3.org/2000/svg"
   xmlns="http://www.w3.org/2000/svg"
   xmlns:sodipodi="http://sodipodi.sourceforge.net/DTD/sodipodi-0.dtd"
   xmlns:inkscape="http://www.inkscape.org/namespaces/inkscape"
   width="48"
   height="48"
   viewBox="0 0 48 48"
   version="1.1"
   id="svg839"
   sodipodi:docname="tabelle_spalte_edit.svg"
   inkscape:version="0.92+devel (4eade15e6d, 2018-11-22, custom)">
  <metadata
     id="metadata845">
    <rdf:RDF>
      <cc:Work
         rdf:about="">
        <dc:format>image/svg+xml</dc:format>
        <dc:type
           rdf:resource="http://purl.org/dc/dcmitype/StillImage" />
        <dc:title></dc:title>
      </cc:Work>
    </rdf:RDF>
  </metadata>
  <defs
     id="defs843" />
  <sodipodi:namedview
     pagecolor="#ffffff"
     bordercolor="#666666"
     inkscape:document-rotation="0"
     borderopacity="1"
     objecttolerance="10"
     gridtolerance="10"
     guidetolerance="10"
     inkscape:pageopacity="0"
     inkscape:pageshadow="2"
     inkscape:window-width="1533"
     inkscape:window-height="1145"
     id="namedview841"
     showgrid="false"
     inkscape:zoom="19.833333"
     inkscape:cx="24"
     inkscape:cy="24"
     inkscape:window-x="1667"
     inkscape:window-y="27"
     inkscape:window-maximized="1"
     inkscape:current-layer="svg839"
     showguides="false" />
  <path
     fill="none"
     d="M 0,0 H 24 V 24 H 0 Z"
     id="path833"
     inkscape:connector-curvature="0" />
  <path
     d="M 40.602565,3 H 7.4238311 C 4.990724,3 3,4.990724 3,7.4238311 V 38.390649 c 0,2.433107 1.990724,4.423831 4.4238311,4.423831 H 40.602565 c 2.433107,0 4.423831,-1.990724 4.423831,-4.423831 V 7.4238311 C 45.026396,4.990724 43.035672,3 40.602565,3 Z M 16.218992,39.593578 H 6.2209019 v -24.43862 h 9.9980901 z m 12.705585,0 h -9.76962 v -24.43862 h 9.76962 z m 12.880917,0 h -9.944952 v -24.43862 h 9.944952 z m 0,-27.587138 H 6.2209019 V 6.2209019 H 41.805494 Z"
     id="path837"
     inkscape:connector-curvature="0"
     style="stroke-width:2.21192"
     sodipodi:nodetypes="ssssssssscccccccccccccccccccc" />
  <rect
     style="color:#000000;overflow:visible;fill:#000000;stroke-width:10;fill-opacity:1"
     id="rect865"
     width="38.198795"
     height="3.060183"
     x="5.4261856"
     y="21.531441" />
  <rect
     y="30.787498"
     x="5.4261856"
     height="3.060183"
     width="38.198795"
     id="rect867"
     style="color:#000000;overflow:visible;fill:#000000;fill-opacity:1;stroke-width:10" />
  <rect
     style="color:#000000;overflow:visible;fill:#000000;fill-opacity:1;stroke-width:10;opacity:0.292"
     id="rect1059"
     width="12.832124"
     height="27.790314"
     x="17.538702"
     y="13.341414" />
  <g
     id="g874"
     transform="rotate(44.988235,-5.1424767,53.382389)">
    <path
       sodipodi:nodetypes="ccccccssscccs"
       style="fill:#ffffff;fill-opacity:1;stroke-width:1.38705"
       inkscape:connector-curvature="0"
       d="m 7.9018438,24.370246 4.1381702,3.268882 4.136812,-3.269956 -0.0038,-18.7188796 -8.2749822,0.00107 z M 16.171768,0.02725216 C 16.171641,-0.65278631 15.476414,-1.2019589 14.615816,-1.2018478 l -5.1635895,6.701e-4 c -0.8605977,1.111e-4 -1.5555823,0.54946393 -1.5554423,1.22950428 l 0.00105,5.61271662 8.2749818,-0.00107 z"
       id="path845" />
    <path
       sodipodi:nodetypes="cccccccsssccc"
       inkscape:connector-curvature="0"
       id="path833-6"
       d="m 9.4146542,22.966337 2.6520858,2.651215 2.651215,-2.652085 -0.0026,-16.5040602 -5.303301,8.708e-4 z M 14.714713,1.2959957 c -9e-5,-0.55154327 -0.445641,-0.99694744 -0.997184,-0.99685687 l -3.30926,5.434e-4 C 9.8567261,0.29977279 9.4113484,0.74532322 9.4114126,1.2968664 l 4.249e-4,3.6522027 5.3033005,-8.708e-4 z" />
  </g>
</svg>
