<?xml version="1.0" encoding="UTF-8" standalone="no"?>
<svg
   xmlns:dc="http://purl.org/dc/elements/1.1/"
   xmlns:cc="http://creativecommons.org/ns#"
   xmlns:rdf="http://www.w3.org/1999/02/22-rdf-syntax-ns#"
   xmlns:svg="http://www.w3.org/2000/svg"
   xmlns="http://www.w3.org/2000/svg"
   xmlns:sodipodi="http://sodipodi.sourceforge.net/DTD/sodipodi-0.dtd"
   xmlns:inkscape="http://www.inkscape.org/namespaces/inkscape"
   width="48"
   height="48"
   viewBox="0 0 48 48"
   version="1.1"
   id="svg839"
   sodipodi:docname="table_new.svg"
   inkscape:version="0.92+devel (4eade15e6d, 2018-11-22, custom)">
  <metadata
     id="metadata845">
    <rdf:RDF>
      <cc:Work
         rdf:about="">
        <dc:format>image/svg+xml</dc:format>
        <dc:type
           rdf:resource="http://purl.org/dc/dcmitype/StillImage" />
        <dc:title />
      </cc:Work>
    </rdf:RDF>
  </metadata>
  <defs
     id="defs843" />
  <sodipodi:namedview
     pagecolor="#ffffff"
     bordercolor="#666666"
     inkscape:document-rotation="0"
     borderopacity="1"
     objecttolerance="10"
     gridtolerance="10"
     guidetolerance="10"
     inkscape:pageopacity="0"
     inkscape:pageshadow="2"
     inkscape:window-width="1533"
     inkscape:window-height="1145"
     id="namedview841"
     showgrid="false"
     inkscape:zoom="19.833333"
     inkscape:cx="24"
     inkscape:cy="24"
     inkscape:window-x="1667"
     inkscape:window-y="27"
     inkscape:window-maximized="1"
     inkscape:current-layer="svg839" />
  <path
     fill="none"
     d="M 0,0 H 24 V 24 H 0 Z"
     id="path833"
     inkscape:connector-curvature="0" />
  <path
     d="M 40.602565,3 H 7.4238311 C 4.990724,3 3,4.990724 3,7.4238311 V 38.390649 c 0,2.433107 1.990724,4.423831 4.4238311,4.423831 H 40.602565 c 2.433107,0 4.423831,-1.990724 4.423831,-4.423831 V 7.4238311 C 45.026396,4.990724 43.035672,3 40.602565,3 Z M 16.218992,39.593578 H 6.2209019 v -24.43862 h 9.9980901 z m 12.705585,0 h -9.76962 v -24.43862 h 9.76962 z m 12.880917,0 h -9.944952 v -24.43862 h 9.944952 z m 0,-27.587138 H 6.2209019 V 6.2209019 H 41.805494 Z"
     id="path837"
     inkscape:connector-curvature="0"
     style="stroke-width:2.21192"
     sodipodi:nodetypes="ssssssssscccccccccccccccccccc" />
  <rect
     style="color:#000000;overflow:visible;fill:#000000;stroke-width:10;fill-opacity:1"
     id="rect865"
     width="38.198795"
     height="3.060183"
     x="5.4261856"
     y="21.531441" />
  <rect
     y="30.787498"
     x="5.4261856"
     height="3.060183"
     width="38.198795"
     id="rect867"
     style="color:#000000;overflow:visible;fill:#000000;fill-opacity:1;stroke-width:10" />
  <g
     transform="translate(26.008116,26.025079)"
     id="g857">
    <ellipse
       ry="7.8299413"
       rx="8.2217016"
       cy="11.439181"
       cx="11.921971"
       id="path843"
       style="color:#000000;overflow:visible;fill:#ffffff;fill-opacity:1;stroke-width:2.49884" />
    <path
       inkscape:connector-curvature="0"
       id="path833-3"
       d="M 11.99,2 C 6.47,2 2,6.48 2,12 2,17.52 6.47,22 11.99,22 17.52,22 22,17.52 22,12 22,6.48 17.52,2 11.99,2 Z M 16.23,18 12,15.45 7.77,18 8.89,13.19 5.16,9.96 10.08,9.54 12,5 l 1.92,4.53 4.92,0.42 -3.73,3.23 z" />
  </g>
</svg>
