<?xml version="1.0" encoding="UTF-8" standalone="no"?>
<svg
   xmlns:dc="http://purl.org/dc/elements/1.1/"
   xmlns:cc="http://creativecommons.org/ns#"
   xmlns:rdf="http://www.w3.org/1999/02/22-rdf-syntax-ns#"
   xmlns:svg="http://www.w3.org/2000/svg"
   xmlns="http://www.w3.org/2000/svg"
   xmlns:sodipodi="http://sodipodi.sourceforge.net/DTD/sodipodi-0.dtd"
   xmlns:inkscape="http://www.inkscape.org/namespaces/inkscape"
   width="48"
   height="48"
   viewBox="0 0 48 48"
   version="1.1"
   id="svg837"
   sodipodi:docname="Template editieren.svg"
   inkscape:version="0.92+devel (4eade15e6d, 2018-11-22, custom)">
  <metadata
     id="metadata843">
    <rdf:RDF>
      <cc:Work
         rdf:about="">
        <dc:format>image/svg+xml</dc:format>
        <dc:type
           rdf:resource="http://purl.org/dc/dcmitype/StillImage" />
        <dc:title></dc:title>
      </cc:Work>
    </rdf:RDF>
  </metadata>
  <defs
     id="defs841">
    <linearGradient
       id="id0"
       gradientUnits="userSpaceOnUse"
       x1="249.06599"
       y1="95.010201"
       x2="348.005"
       y2="107.647">
      <stop
         offset="0"
         style="stop-color:#E91100"
         id="stop2251" />
      <stop
         offset="1"
         style="stop-color:#B30000"
         id="stop2253" />
    </linearGradient>
  </defs>
  <sodipodi:namedview
     pagecolor="#ffffff"
     bordercolor="#666666"
     inkscape:document-rotation="0"
     borderopacity="1"
     objecttolerance="10"
     gridtolerance="10"
     guidetolerance="10"
     inkscape:pageopacity="0"
     inkscape:pageshadow="2"
     inkscape:window-width="1149"
     inkscape:window-height="849"
     id="namedview839"
     showgrid="false"
     inkscape:zoom="4.8766292"
     inkscape:cx="26.960433"
     inkscape:cy="12.176669"
     inkscape:window-x="90"
     inkscape:window-y="155"
     inkscape:window-maximized="0"
     inkscape:current-layer="svg837" />
  <path
     fill="none"
     d="M 0,0 H 24 V 24 H 0 Z"
     id="path833"
     inkscape:connector-curvature="0" />
  <path
     d="M 28.145317,2 H 10.429063 C 7.9930785,2 6,3.9930785 6,6.4290633 V 41.86157 c 0,2.435985 1.9709332,4.429063 4.406918,4.429063 h 26.596525 c 2.435985,0 4.429063,-1.993078 4.429063,-4.429063 V 15.28719 Z M 38.297561,43.155688 H 9.1349454 V 5.1349457 H 27.275323 V 16.157184 h 11.022238 z"
     id="path835"
     inkscape:connector-curvature="0"
     sodipodi:nodetypes="cssssssccccccccc"
     style="stroke-width:2.21453" />
  <g
     id="g874"
     transform="rotate(44.988235,-5.2523281,53.403361)">
    <path
       sodipodi:nodetypes="ccccccssscccs"
       style="fill:#ffffff;fill-opacity:1;stroke-width:1.38705"
       inkscape:connector-curvature="0"
       d="m 7.9018438,24.370246 4.1381702,3.268882 4.136812,-3.269956 -0.0038,-18.7188796 -8.2749822,0.00107 z M 16.171768,0.02725216 C 16.171641,-0.65278631 15.476414,-1.2019589 14.615816,-1.2018478 l -5.1635895,6.701e-4 c -0.8605977,1.111e-4 -1.5555823,0.54946393 -1.5554423,1.22950428 l 0.00105,5.61271662 8.2749818,-0.00107 z"
       id="path845" />
    <path
       sodipodi:nodetypes="cccccccsssccc"
       inkscape:connector-curvature="0"
       id="path833-6"
       d="m 9.4146542,22.966337 2.6520858,2.651215 2.651215,-2.652085 -0.0026,-16.5040602 -5.303301,8.708e-4 z M 14.714713,1.2959957 c -9e-5,-0.55154327 -0.445641,-0.99694744 -0.997184,-0.99685687 l -3.30926,5.434e-4 C 9.8567261,0.29977279 9.4113484,0.74532322 9.4114126,1.2968664 l 4.249e-4,3.6522027 5.3033005,-8.708e-4 z" />
  </g>
  <g
     id="text2096"
     style="opacity:1;fill:#000000;fill-opacity:1">
    <path
       style="color:#000000;font-style:normal;font-variant:normal;font-weight:normal;font-stretch:normal;font-size:medium;line-height:normal;font-family:sans-serif;font-variant-ligatures:normal;font-variant-position:normal;font-variant-caps:normal;font-variant-numeric:normal;font-variant-alternates:normal;font-variant-east-asian:normal;font-feature-settings:normal;font-variation-settings:normal;text-indent:0;text-align:start;text-decoration:none;text-decoration-line:none;text-decoration-style:solid;text-decoration-color:#000000;letter-spacing:normal;word-spacing:normal;text-transform:none;writing-mode:lr-tb;direction:ltr;text-orientation:mixed;dominant-baseline:auto;baseline-shift:baseline;text-anchor:start;white-space:normal;shape-padding:0;shape-margin:0;inline-size:0;clip-rule:nonzero;display:inline;overflow:visible;visibility:visible;isolation:auto;mix-blend-mode:normal;color-interpolation:sRGB;color-interpolation-filters:linearRGB;solid-color:#000000;solid-opacity:1;vector-effect:none;fill:#000000;fill-opacity:1;fill-rule:evenodd;stroke-width:0.181849;stroke-linecap:butt;stroke-linejoin:miter;stroke-miterlimit:4;stroke-dasharray:none;stroke-dashoffset:0;stroke-opacity:1;filter-blend-mode:normal;filter-gaussianBlur-deviation:0;color-rendering:auto;image-rendering:auto;shape-rendering:auto;text-rendering:auto;enable-background:accumulate;stop-color:#000000;stop-opacity:1;stroke:none"
       d="m 23.09248,24.466397 -0.180657,1.414404 H 22.30291 c -1.630544,0 -2.693165,-0.242339 -3.187868,-0.726885 -0.488184,-0.484545 -0.63988,-1.450516 -0.45496,-2.897637 l 0.299756,-2.347522 c 0.126372,-0.988775 0.03698,-1.673044 -0.268163,-2.0529 -0.305148,-0.379742 -0.922587,-0.569676 -1.852445,-0.569676 h -0.599138 l 0.179403,-1.404497 h 0.599138 c 0.936375,0 1.60196,-0.186677 1.996744,-0.559895 0.402056,-0.379864 0.665453,-1.057605 0.790072,-2.03323 l 0.301006,-2.357428 c 0.18492,-1.4471223 0.582839,-2.4097053 1.194014,-2.8877273 0.61844,-0.48455 1.742874,-0.726762 3.373407,-0.726886 h 0.60904 l -0.179401,1.404621 h -0.667966 c -0.923335,0 -1.544159,0.144048 -1.862468,0.432145 -0.318437,0.288221 -0.536576,0.8938773 -0.654423,1.8172103 l -0.311163,2.43591 c -0.131262,1.028016 -0.377232,1.774586 -0.737794,2.239453 -0.354167,0.464993 -0.901773,0.779293 -1.642954,0.94302 0.704318,0.176768 1.17407,0.497587 1.409389,0.962578 0.235192,0.464861 0.287594,1.208179 0.157214,2.229679 l -0.311167,2.435908 c -0.117971,0.923334 -0.05453,1.528983 0.190308,1.817088 0.24472,0.288099 0.828814,0.432272 1.752154,0.432272 h 0.667839 z"
       id="path893" />
    <path
       style="color:#000000;font-style:normal;font-variant:normal;font-weight:normal;font-stretch:normal;font-size:medium;line-height:normal;font-family:sans-serif;font-variant-ligatures:normal;font-variant-position:normal;font-variant-caps:normal;font-variant-numeric:normal;font-variant-alternates:normal;font-variant-east-asian:normal;font-feature-settings:normal;font-variation-settings:normal;text-indent:0;text-align:start;text-decoration:none;text-decoration-line:none;text-decoration-style:solid;text-decoration-color:#000000;letter-spacing:normal;word-spacing:normal;text-transform:none;writing-mode:lr-tb;direction:ltr;text-orientation:mixed;dominant-baseline:auto;baseline-shift:baseline;text-anchor:start;white-space:normal;shape-padding:0;shape-margin:0;inline-size:0;clip-rule:nonzero;display:inline;overflow:visible;visibility:visible;isolation:auto;mix-blend-mode:normal;color-interpolation:sRGB;color-interpolation-filters:linearRGB;solid-color:#000000;solid-opacity:1;vector-effect:none;fill-opacity:1;fill-rule:evenodd;stroke-width:0.181849;stroke-linecap:butt;stroke-linejoin:miter;stroke-miterlimit:4;stroke-dasharray:none;stroke-dashoffset:0;stroke-opacity:1;filter-blend-mode:normal;filter-gaussianBlur-deviation:0;color-rendering:auto;image-rendering:auto;shape-rendering:auto;text-rendering:auto;enable-background:accumulate;stop-color:#000000;stop-opacity:1;stroke:none;fill:#000000"
       d="M 24.673828 7.2265625 C 23.034294 7.2266872 21.893119 7.4641796 21.244141 7.9726562 C 20.601394 8.4753718 20.201981 9.4615604 20.015625 10.919922 L 19.714844 13.277344 C 19.591594 14.242246 19.330348 14.899458 18.953125 15.255859 C 18.584415 15.604427 17.943822 15.791016 17.019531 15.791016 L 16.339844 15.791016 L 16.136719 17.376953 L 16.839844 17.376953 C 17.75732 17.376953 18.344186 17.567511 18.621094 17.912109 C 18.898278 18.257161 18.99416 18.918291 18.869141 19.896484 L 18.570312 22.244141 C 18.383955 23.70251 18.526399 24.698276 19.050781 25.21875 C 19.581156 25.738236 20.663181 25.972656 22.302734 25.972656 L 22.992188 25.972656 L 23.195312 24.375 L 23.091797 24.375 L 22.423828 24.375 C 21.509953 24.375 20.950382 24.219708 20.742188 23.974609 C 20.533049 23.728513 20.455447 23.142827 20.572266 22.228516 L 20.882812 19.792969 C 21.014281 18.762939 20.967159 18.004611 20.716797 17.509766 C 20.490905 17.063403 20.001664 16.785959 19.388672 16.595703 C 20.052323 16.41848 20.602904 16.145598 20.941406 15.701172 C 21.318589 15.214876 21.564897 14.454655 21.697266 13.417969 L 22.009766 10.982422 C 22.126461 10.068113 22.347997 9.4802607 22.634766 9.2207031 C 22.920645 8.9619582 23.521669 8.8125 24.435547 8.8125 L 25.183594 8.8125 L 25.386719 7.2265625 L 24.673828 7.2265625 z M 24.673828 7.4082031 L 25.179688 7.4082031 L 25.023438 8.6308594 L 24.435547 8.6308594 C 23.502755 8.6308594 22.862458 8.7684885 22.511719 9.0859375 C 22.161613 9.4028219 21.947124 10.026627 21.828125 10.958984 L 21.517578 13.394531 C 21.387423 14.413877 21.14277 15.146405 20.798828 15.589844 L 20.796875 15.589844 C 20.458115 16.034608 19.933491 16.339525 19.207031 16.5 L 19.205078 16.677734 C 19.893461 16.850503 20.333773 17.15527 20.554688 17.591797 C 20.774709 18.026673 20.832416 18.756561 20.703125 19.769531 L 20.392578 22.205078 C 20.273454 23.137435 20.322978 23.763637 20.603516 24.09375 C 20.884761 24.424849 21.491023 24.556641 22.423828 24.556641 L 22.988281 24.556641 L 22.832031 25.789062 L 22.302734 25.789062 C 20.68236 25.789062 19.639226 25.538845 19.179688 25.089844 C 18.727702 24.641227 18.566517 23.703451 18.75 22.267578 L 19.050781 19.919922 C 19.178506 18.920566 19.09482 18.213488 18.761719 17.798828 C 18.42833 17.383942 17.782083 17.195313 16.839844 17.195312 L 16.34375 17.195312 L 16.5 15.972656 L 17.019531 15.972656 C 17.967991 15.972656 18.657267 15.78654 19.078125 15.388672 C 19.505014 14.985345 19.770496 14.287129 19.896484 13.300781 L 20.197266 10.943359 C 20.380749 9.5074762 20.777819 8.5685628 21.357422 8.1152344 C 21.945324 7.6546111 23.052296 7.4083264 24.673828 7.4082031 z "
       id="path895" />
  </g>
  <g
     id="text2100"
     style="opacity:0.3;fill:#000000;fill-opacity:1">
    <path
       style="color:#000000;font-style:normal;font-variant:normal;font-weight:normal;font-stretch:normal;font-size:medium;line-height:normal;font-family:sans-serif;font-variant-ligatures:normal;font-variant-position:normal;font-variant-caps:normal;font-variant-numeric:normal;font-variant-alternates:normal;font-variant-east-asian:normal;font-feature-settings:normal;font-variation-settings:normal;text-indent:0;text-align:start;text-decoration:none;text-decoration-line:none;text-decoration-style:solid;text-decoration-color:#000000;letter-spacing:normal;word-spacing:normal;text-transform:none;writing-mode:lr-tb;direction:ltr;text-orientation:mixed;dominant-baseline:auto;baseline-shift:baseline;text-anchor:start;white-space:normal;shape-padding:0;shape-margin:0;inline-size:0;clip-rule:nonzero;display:inline;overflow:visible;visibility:visible;isolation:auto;mix-blend-mode:normal;color-interpolation:sRGB;color-interpolation-filters:linearRGB;solid-color:#000000;solid-opacity:1;vector-effect:none;fill:#000000;fill-opacity:1;fill-rule:evenodd;stroke-width:0.181849;stroke-linecap:butt;stroke-linejoin:miter;stroke-miterlimit:4;stroke-dasharray:none;stroke-dashoffset:0;stroke-opacity:1;filter-blend-mode:normal;filter-gaussianBlur-deviation:0;color-rendering:auto;image-rendering:auto;shape-rendering:auto;text-rendering:auto;enable-background:accumulate;stop-color:#000000;stop-opacity:1;stroke:none"
       d="m 18.030727,24.466397 -0.180658,1.414404 h -0.608913 c -1.630536,0 -2.693155,-0.242339 -3.187858,-0.726885 C 13.56511,24.669371 13.413414,23.7034 13.598333,22.256279 l 0.299756,-2.347522 c 0.126372,-0.988775 0.03699,-1.673044 -0.268163,-2.0529 -0.305144,-0.379742 -0.922582,-0.569676 -1.852445,-0.569676 h -0.599134 l 0.179402,-1.404497 h 0.599134 c 0.936376,0 1.60196,-0.186677 1.996744,-0.559895 0.402057,-0.379864 0.665458,-1.057605 0.790073,-2.03323 l 0.301011,-2.357428 c 0.18492,-1.4471223 0.582839,-2.4097053 1.194004,-2.8877273 0.618444,-0.48455 1.742873,-0.726762 3.373409,-0.726886 h 0.609043 l -0.179403,1.404621 H 19.3738 c -0.92334,0 -1.54416,0.144048 -1.862479,0.432145 -0.318432,0.288221 -0.536575,0.8938773 -0.654422,1.8172103 l -0.311163,2.43591 c -0.131259,1.028016 -0.377233,1.774586 -0.73779,2.239453 -0.354166,0.464993 -0.901777,0.779293 -1.642955,0.94302 0.704323,0.176768 1.17407,0.497587 1.40939,0.962578 0.235193,0.464861 0.287599,1.208179 0.157214,2.229679 l -0.311164,2.435908 c -0.11797,0.923334 -0.05454,1.528983 0.19031,1.817088 0.244719,0.288099 0.828808,0.432272 1.752144,0.432272 h 0.667839 z"
       id="path885" />
    <path
       style="color:#000000;font-style:normal;font-variant:normal;font-weight:normal;font-stretch:normal;font-size:medium;line-height:normal;font-family:sans-serif;font-variant-ligatures:normal;font-variant-position:normal;font-variant-caps:normal;font-variant-numeric:normal;font-variant-alternates:normal;font-variant-east-asian:normal;font-feature-settings:normal;font-variation-settings:normal;text-indent:0;text-align:start;text-decoration:none;text-decoration-line:none;text-decoration-style:solid;text-decoration-color:#000000;letter-spacing:normal;word-spacing:normal;text-transform:none;writing-mode:lr-tb;direction:ltr;text-orientation:mixed;dominant-baseline:auto;baseline-shift:baseline;text-anchor:start;white-space:normal;shape-padding:0;shape-margin:0;inline-size:0;clip-rule:nonzero;display:inline;overflow:visible;visibility:visible;isolation:auto;mix-blend-mode:normal;color-interpolation:sRGB;color-interpolation-filters:linearRGB;solid-color:#000000;solid-opacity:1;vector-effect:none;fill-opacity:1;fill-rule:evenodd;stroke-width:0.181849;stroke-linecap:butt;stroke-linejoin:miter;stroke-miterlimit:4;stroke-dasharray:none;stroke-dashoffset:0;stroke-opacity:1;filter-blend-mode:normal;filter-gaussianBlur-deviation:0;color-rendering:auto;image-rendering:auto;shape-rendering:auto;text-rendering:auto;enable-background:accumulate;stop-color:#000000;stop-opacity:1;stroke:none;fill:#000000"
       d="M 19.611328 7.2265625 C 17.971791 7.2266872 16.832575 7.4641801 16.183594 7.9726562 C 15.540857 8.475372 15.141434 9.4615604 14.955078 10.919922 L 14.654297 13.277344 C 14.531052 14.242245 14.267849 14.899458 13.890625 15.255859 C 13.521915 15.604427 12.881323 15.791016 11.957031 15.791016 L 11.277344 15.791016 L 11.074219 17.376953 L 11.777344 17.376953 C 12.694825 17.376953 13.28169 17.567512 13.558594 17.912109 C 13.835787 18.257161 13.933613 18.91829 13.808594 19.896484 L 13.507812 22.244141 C 13.321456 23.70251 13.463895 24.698276 13.988281 25.21875 L 13.990234 25.21875 C 14.520609 25.738236 15.600689 25.972656 17.240234 25.972656 L 17.929688 25.972656 L 18.134766 24.375 L 18.03125 24.375 L 17.363281 24.375 C 16.44941 24.375 15.887881 24.219709 15.679688 23.974609 C 15.470539 23.728513 15.392948 23.142827 15.509766 22.228516 L 15.822266 19.792969 C 15.953739 18.762938 15.906613 18.004611 15.65625 17.509766 C 15.430358 17.063403 14.941121 16.785959 14.328125 16.595703 C 14.991147 16.418648 15.540407 16.144924 15.878906 15.701172 C 16.256083 15.214877 16.504353 14.454655 16.636719 13.417969 L 16.947266 10.982422 C 17.063961 10.068114 17.285501 9.4802609 17.572266 9.2207031 C 17.858156 8.9619561 18.459163 8.8125 19.373047 8.8125 L 20.121094 8.8125 L 20.324219 7.2265625 L 19.611328 7.2265625 z M 19.611328 7.4082031 L 20.117188 7.4082031 L 19.960938 8.6308594 L 19.373047 8.6308594 C 18.44025 8.6308594 17.80192 8.7684905 17.451172 9.0859375 C 17.101072 9.4028218 16.886577 10.026627 16.767578 10.958984 L 16.455078 13.394531 C 16.324926 14.413877 16.080265 15.146405 15.736328 15.589844 C 15.39757 16.034608 14.870988 16.339525 14.144531 16.5 L 14.142578 16.677734 C 14.830966 16.850503 15.273225 17.15527 15.494141 17.591797 C 15.714163 18.026673 15.769921 18.756562 15.640625 19.769531 L 15.330078 22.205078 C 15.210955 23.137434 15.260464 23.763636 15.541016 24.09375 C 15.82226 24.424849 16.43048 24.556641 17.363281 24.556641 L 17.927734 24.556641 L 17.769531 25.789062 L 17.240234 25.789062 C 15.618707 25.789062 14.576218 25.53945 14.117188 25.089844 C 13.665198 24.641227 13.505971 23.703451 13.689453 22.267578 L 13.988281 19.919922 C 14.116006 18.920566 14.034285 18.213489 13.701172 17.798828 C 13.367787 17.383942 12.719588 17.195313 11.777344 17.195312 L 11.28125 17.195312 L 11.4375 15.972656 L 11.957031 15.972656 C 12.905492 15.972656 13.594767 15.78654 14.015625 15.388672 C 14.442515 14.985345 14.708 14.28713 14.833984 13.300781 L 15.134766 10.943359 C 15.318249 9.5074762 15.715329 8.5685627 16.294922 8.1152344 C 16.882828 7.6546106 17.989793 7.4083264 19.611328 7.4082031 z "
       id="path887" />
  </g>
  <g
     id="text2104"
     style="opacity:1;fill:#000000;fill-opacity:1">
    <path
       style="color:#000000;font-style:normal;font-variant:normal;font-weight:normal;font-stretch:normal;font-size:medium;line-height:normal;font-family:sans-serif;font-variant-ligatures:normal;font-variant-position:normal;font-variant-caps:normal;font-variant-numeric:normal;font-variant-alternates:normal;font-variant-east-asian:normal;font-feature-settings:normal;font-variation-settings:normal;text-indent:0;text-align:start;text-decoration:none;text-decoration-line:none;text-decoration-style:solid;text-decoration-color:#000000;letter-spacing:normal;word-spacing:normal;text-transform:none;writing-mode:lr-tb;direction:ltr;text-orientation:mixed;dominant-baseline:auto;baseline-shift:baseline;text-anchor:start;white-space:normal;shape-padding:0;shape-margin:0;inline-size:0;clip-rule:nonzero;display:inline;overflow:visible;visibility:visible;isolation:auto;mix-blend-mode:normal;color-interpolation:sRGB;color-interpolation-filters:linearRGB;solid-color:#000000;solid-opacity:1;vector-effect:none;fill:#000000;fill-opacity:1;fill-rule:evenodd;stroke-width:0.181849;stroke-linecap:butt;stroke-linejoin:miter;stroke-miterlimit:4;stroke-dasharray:none;stroke-dashoffset:0;stroke-opacity:1;filter-blend-mode:normal;filter-gaussianBlur-deviation:0;color-rendering:auto;image-rendering:auto;shape-rendering:auto;text-rendering:auto;enable-background:accumulate;stop-color:#000000;stop-opacity:1;stroke:none"
       d="m 21.544904,35.832111 h 0.687518 c 0.916698,0 1.530628,-0.140917 1.841534,-0.422371 0.317557,-0.281576 0.536203,-0.890613 0.655801,-1.82699 l 0.311039,-2.435906 c 0.130508,-1.021504 0.372723,-1.76481 0.726762,-2.229681 0.354041,-0.464992 0.905785,-0.785808 1.655239,-0.962575 -0.705951,-0.163728 -1.176588,-0.478028 -1.411773,-0.94302 -0.235319,-0.464867 -0.287348,-1.211438 -0.155962,-2.239455 l 0.311041,-2.435907 c 0.11872,-0.929855 0.05528,-1.535635 -0.190308,-1.817211 -0.238207,-0.288098 -0.815653,-0.432145 -1.732469,-0.432145 h -0.687524 l 0.179403,-1.404621 h 0.618818 c 1.630544,1.22e-4 2.686517,0.242335 3.168182,0.726882 0.488938,0.478029 0.641009,1.44061 0.456213,2.887731 l -0.301005,2.357429 c -0.124619,0.975614 -0.03448,1.653359 0.270669,2.033228 0.305898,0.373219 0.92384,0.559894 1.853696,0.559894 h 0.608912 l -0.179402,1.404499 h -0.608913 c -0.92986,0 -1.595817,0.189933 -1.997993,0.569671 -0.402058,0.379866 -0.666337,1.06413 -0.792578,2.052904 l -0.299756,2.347523 c -0.184922,1.44712 -0.583341,2.413091 -1.195142,2.897638 -0.605527,0.484546 -1.723443,0.726885 -3.353856,0.726885 h -0.618817 l 0.180658,-1.414406 z"
       id="path901" />
    <path
       style="color:#000000;font-style:normal;font-variant:normal;font-weight:normal;font-stretch:normal;font-size:medium;line-height:normal;font-family:sans-serif;font-variant-ligatures:normal;font-variant-position:normal;font-variant-caps:normal;font-variant-numeric:normal;font-variant-alternates:normal;font-variant-east-asian:normal;font-feature-settings:normal;font-variation-settings:normal;text-indent:0;text-align:start;text-decoration:none;text-decoration-line:none;text-decoration-style:solid;text-decoration-color:#000000;letter-spacing:normal;word-spacing:normal;text-transform:none;writing-mode:lr-tb;direction:ltr;text-orientation:mixed;dominant-baseline:auto;baseline-shift:baseline;text-anchor:start;white-space:normal;shape-padding:0;shape-margin:0;inline-size:0;clip-rule:nonzero;display:inline;overflow:visible;visibility:visible;isolation:auto;mix-blend-mode:normal;color-interpolation:sRGB;color-interpolation-filters:linearRGB;solid-color:#000000;solid-opacity:1;vector-effect:none;fill-opacity:1;fill-rule:evenodd;stroke-width:0.181849;stroke-linecap:butt;stroke-linejoin:miter;stroke-miterlimit:4;stroke-dasharray:none;stroke-dashoffset:0;stroke-opacity:1;filter-blend-mode:normal;filter-gaussianBlur-deviation:0;color-rendering:auto;image-rendering:auto;shape-rendering:auto;text-rendering:auto;enable-background:accumulate;stop-color:#000000;stop-opacity:1;stroke:none;fill:#000000"
       d="M 23.654297 18.591797 L 23.453125 20.177734 L 24.244141 20.177734 C 25.151433 20.177734 25.704542 20.332217 25.90625 20.576172 L 25.90625 20.578125 L 25.908203 20.578125 C 26.116428 20.816863 26.193748 21.403321 26.076172 22.324219 L 25.765625 24.759766 C 25.633155 25.796268 25.679091 26.557687 25.929688 27.052734 C 26.155532 27.499259 26.647408 27.767767 27.261719 27.947266 C 26.58977 28.135336 26.034295 28.416114 25.695312 28.861328 C 25.325079 29.347463 25.082769 30.104733 24.951172 31.134766 L 24.638672 33.570312 C 24.520211 34.49779 24.298033 35.089655 24.013672 35.341797 C 23.735721 35.593417 23.139802 35.740234 22.232422 35.740234 L 21.554688 35.740234 L 21.46875 35.712891 L 21.261719 37.337891 L 21.982422 37.337891 C 23.620392 37.337891 24.755655 37.100279 25.392578 36.591797 L 25.394531 36.589844 C 26.036258 36.080262 26.436873 35.089728 26.623047 33.632812 L 26.921875 31.285156 C 27.046764 30.306968 27.310605 29.643202 27.6875 29.287109 C 28.064249 28.931379 28.705568 28.742188 29.623047 28.742188 L 30.310547 28.742188 L 30.513672 27.15625 L 29.802734 27.15625 C 28.885971 27.15625 28.297143 26.966549 28.019531 26.628906 C 27.7426 26.283122 27.644448 25.62997 27.767578 24.666016 L 28.068359 22.308594 C 28.254457 20.851279 28.110836 19.860115 27.585938 19.345703 C 27.06811 18.824777 25.993061 18.59192 24.353516 18.591797 L 23.654297 18.591797 z M 23.814453 18.773438 L 24.353516 18.773438 C 25.975058 18.773559 27.011529 19.024488 27.457031 19.472656 L 27.458984 19.474609 C 27.911033 19.916572 28.072032 20.849278 27.888672 22.285156 L 27.587891 24.642578 C 27.461903 25.628908 27.544211 26.329921 27.876953 26.744141 L 27.876953 26.746094 C 28.211484 27.154247 28.860709 27.337891 29.802734 27.337891 L 30.306641 27.337891 L 30.150391 28.560547 L 29.623047 28.560547 C 28.680805 28.560547 27.990103 28.752504 27.5625 29.15625 C 27.135279 29.55989 26.86978 30.264312 26.742188 31.263672 L 26.441406 33.611328 C 26.257921 35.047206 25.862006 35.989259 25.28125 36.449219 L 25.279297 36.449219 C 24.704848 36.908896 23.603825 37.15625 21.982422 37.15625 L 21.46875 37.15625 L 21.625 35.923828 L 22.232422 35.923828 C 23.158438 35.923828 23.790904 35.78785 24.134766 35.476562 C 24.484948 35.165258 24.699688 34.538162 24.820312 33.59375 L 25.130859 31.158203 C 25.260278 30.145227 25.501999 29.416263 25.839844 28.972656 C 26.178514 28.527852 26.708125 28.216382 27.443359 28.042969 L 27.443359 27.865234 C 26.753692 27.705283 26.31238 27.406825 26.091797 26.970703 C 25.871755 26.536016 25.815011 25.802735 25.945312 24.783203 L 26.255859 22.347656 C 26.375601 21.409803 26.327107 20.785635 26.044922 20.460938 C 25.770216 20.128696 25.17048 19.996094 24.244141 19.996094 L 23.660156 19.996094 L 23.814453 18.773438 z "
       id="path903" />
  </g>
  <g
     id="text2108"
     style="opacity:0.3;fill:#000000;fill-opacity:1">
    <path
       style="color:#000000;font-style:normal;font-variant:normal;font-weight:normal;font-stretch:normal;font-size:medium;line-height:normal;font-family:sans-serif;font-variant-ligatures:normal;font-variant-position:normal;font-variant-caps:normal;font-variant-numeric:normal;font-variant-alternates:normal;font-variant-east-asian:normal;font-feature-settings:normal;font-variation-settings:normal;text-indent:0;text-align:start;text-decoration:none;text-decoration-line:none;text-decoration-style:solid;text-decoration-color:#000000;letter-spacing:normal;word-spacing:normal;text-transform:none;writing-mode:lr-tb;direction:ltr;text-orientation:mixed;dominant-baseline:auto;baseline-shift:baseline;text-anchor:start;white-space:normal;shape-padding:0;shape-margin:0;inline-size:0;clip-rule:nonzero;display:inline;overflow:visible;visibility:visible;isolation:auto;mix-blend-mode:normal;color-interpolation:sRGB;color-interpolation-filters:linearRGB;solid-color:#000000;solid-opacity:1;vector-effect:none;fill:#000000;fill-opacity:1;fill-rule:evenodd;stroke-width:0.181849;stroke-linecap:butt;stroke-linejoin:miter;stroke-miterlimit:4;stroke-dasharray:none;stroke-dashoffset:0;stroke-opacity:1;filter-blend-mode:normal;filter-gaussianBlur-deviation:0;color-rendering:auto;image-rendering:auto;shape-rendering:auto;text-rendering:auto;enable-background:accumulate;stop-color:#000000;stop-opacity:1;stroke:none"
       d="m 26.607919,35.832111 h 0.687521 c 0.916817,0 1.530629,-0.140917 1.841657,-0.422371 0.317559,-0.281576 0.536077,-0.890613 0.655675,-1.82699 l 0.311167,-2.435906 c 0.13038,-1.021504 0.372719,-1.76481 0.726762,-2.229681 0.354037,-0.464992 0.905784,-0.785808 1.655235,-0.962575 -0.705947,-0.163728 -1.176575,-0.478028 -1.411894,-0.94302 -0.23532,-0.464867 -0.287223,-1.211438 -0.155961,-2.239455 l 0.311165,-2.435907 c 0.118725,-0.929855 0.05529,-1.535635 -0.190308,-1.817211 -0.2382,-0.288098 -0.815772,-0.432145 -1.732469,-0.432145 h -0.687517 l 0.179401,-1.404621 h 0.618817 c 1.630413,1.22e-4 2.686519,0.242335 3.168057,0.726882 0.489062,0.478029 0.641133,1.44061 0.456341,2.887731 l -0.301138,2.357429 c -0.124612,0.975614 -0.03435,1.653359 0.270794,2.033228 0.305899,0.373219 0.923719,0.559894 1.853571,0.559894 h 0.60904 l -0.179405,1.404499 h -0.609036 c -0.929856,0 -1.595817,0.189933 -1.997869,0.569671 -0.402182,0.379866 -0.66633,1.06413 -0.792579,2.052904 l -0.299881,2.347523 c -0.184796,1.44712 -0.583216,2.413091 -1.195138,2.897638 -0.605405,0.484546 -1.723312,0.726885 -3.353857,0.726885 h -0.618821 l 0.180657,-1.414406 z"
       id="path909" />
    <path
       style="color:#000000;font-style:normal;font-variant:normal;font-weight:normal;font-stretch:normal;font-size:medium;line-height:normal;font-family:sans-serif;font-variant-ligatures:normal;font-variant-position:normal;font-variant-caps:normal;font-variant-numeric:normal;font-variant-alternates:normal;font-variant-east-asian:normal;font-feature-settings:normal;font-variation-settings:normal;text-indent:0;text-align:start;text-decoration:none;text-decoration-line:none;text-decoration-style:solid;text-decoration-color:#000000;letter-spacing:normal;word-spacing:normal;text-transform:none;writing-mode:lr-tb;direction:ltr;text-orientation:mixed;dominant-baseline:auto;baseline-shift:baseline;text-anchor:start;white-space:normal;shape-padding:0;shape-margin:0;inline-size:0;clip-rule:nonzero;display:inline;overflow:visible;visibility:visible;isolation:auto;mix-blend-mode:normal;color-interpolation:sRGB;color-interpolation-filters:linearRGB;solid-color:#000000;solid-opacity:1;vector-effect:none;fill-opacity:1;fill-rule:evenodd;stroke-width:0.181849;stroke-linecap:butt;stroke-linejoin:miter;stroke-miterlimit:4;stroke-dasharray:none;stroke-dashoffset:0;stroke-opacity:1;filter-blend-mode:normal;filter-gaussianBlur-deviation:0;color-rendering:auto;image-rendering:auto;shape-rendering:auto;text-rendering:auto;enable-background:accumulate;stop-color:#000000;stop-opacity:1;stroke:none;fill:#000000"
       d="M 28.71875 18.591797 L 28.515625 20.177734 L 29.306641 20.177734 C 30.213813 20.177734 30.76706 20.332231 30.96875 20.576172 L 30.96875 20.578125 L 30.970703 20.578125 C 31.178936 20.816862 31.256253 21.403321 31.138672 22.324219 L 30.828125 24.759766 C 30.695781 25.796256 30.741584 26.557676 30.992188 27.052734 C 31.218152 27.499242 31.709913 27.767767 32.324219 27.947266 C 31.652272 28.135336 31.096791 28.416114 30.757812 28.861328 C 30.387581 29.347455 30.145142 30.10472 30.013672 31.134766 L 29.703125 33.570312 C 29.584663 34.497798 29.360526 35.089663 29.076172 35.341797 C 28.798078 35.593448 28.202422 35.740234 27.294922 35.740234 L 26.617188 35.740234 L 26.53125 35.712891 L 26.324219 37.337891 L 27.046875 37.337891 C 28.686429 37.337891 29.820541 37.099269 30.457031 36.589844 C 31.099342 36.080447 31.499424 35.090326 31.685547 33.632812 L 31.984375 31.285156 C 32.109273 30.30696 32.372995 29.643195 32.75 29.287109 C 33.126617 28.931395 33.768072 28.742188 34.685547 28.742188 L 35.375 28.742188 L 35.576172 27.15625 L 34.865234 27.15625 C 33.947552 27.15625 33.359305 26.9672 33.082031 26.628906 C 32.805097 26.283113 32.706956 25.629963 32.830078 24.666016 L 33.130859 22.308594 C 33.316893 20.851751 33.175002 19.860254 32.650391 19.345703 C 32.132677 18.824754 31.057384 18.59192 29.417969 18.591797 L 28.71875 18.591797 z M 28.878906 18.773438 L 29.417969 18.773438 C 31.03938 18.773559 32.076122 19.024511 32.521484 19.472656 L 32.521484 19.474609 C 32.973651 19.916576 33.134528 20.849278 32.951172 22.285156 L 32.650391 24.642578 C 32.524409 25.628915 32.606724 26.329931 32.939453 26.744141 L 32.941406 26.744141 L 32.941406 26.746094 C 33.275931 27.154238 33.923213 27.337891 34.865234 27.337891 L 35.369141 27.337891 L 35.214844 28.560547 L 34.685547 28.560547 C 33.743309 28.560547 33.052487 28.752489 32.625 29.15625 C 32.197641 29.559896 31.932287 30.26432 31.804688 31.263672 L 31.503906 33.611328 C 31.320546 35.047202 30.924623 35.989257 30.34375 36.449219 C 29.76943 36.908885 28.668411 37.15625 27.046875 37.15625 L 26.53125 37.15625 L 26.6875 35.923828 L 27.294922 35.923828 C 28.221056 35.923828 28.853304 35.787819 29.197266 35.476562 C 29.547459 35.16525 29.762189 34.538154 29.882812 33.59375 L 30.193359 31.158203 C 30.322649 30.14524 30.564489 29.416271 30.902344 28.972656 C 31.24101 28.527853 31.770628 28.216382 32.505859 28.042969 L 32.505859 27.865234 C 31.816196 27.705283 31.375015 27.406844 31.154297 26.970703 C 30.93426 26.536028 30.877632 25.802747 31.007812 24.783203 L 31.320312 22.347656 C 31.440059 21.409802 31.389618 20.785635 31.107422 20.460938 C 30.832328 20.129424 30.231922 19.996094 29.306641 19.996094 L 28.722656 19.996094 L 28.878906 18.773438 z "
       id="path911" />
  </g>
</svg>
