<?xml version="1.0" encoding="UTF-8" standalone="no"?>
<svg
   xmlns:dc="http://purl.org/dc/elements/1.1/"
   xmlns:cc="http://creativecommons.org/ns#"
   xmlns:rdf="http://www.w3.org/1999/02/22-rdf-syntax-ns#"
   xmlns:svg="http://www.w3.org/2000/svg"
   xmlns="http://www.w3.org/2000/svg"
   xmlns:sodipodi="http://sodipodi.sourceforge.net/DTD/sodipodi-0.dtd"
   xmlns:inkscape="http://www.inkscape.org/namespaces/inkscape"
   width="48"
   height="48"
   viewBox="0 0 48 48"
   version="1.1"
   id="svg837"
   sodipodi:docname="Template expandieren.svg"
   inkscape:version="0.92+devel (4eade15e6d, 2018-11-22, custom)">
  <metadata
     id="metadata843">
    <rdf:RDF>
      <cc:Work
         rdf:about="">
        <dc:format>image/svg+xml</dc:format>
        <dc:type
           rdf:resource="http://purl.org/dc/dcmitype/StillImage" />
        <dc:title></dc:title>
      </cc:Work>
    </rdf:RDF>
  </metadata>
  <defs
     id="defs841">
    <linearGradient
       id="id0"
       gradientUnits="userSpaceOnUse"
       x1="249.06599"
       y1="95.010201"
       x2="348.005"
       y2="107.647">
      <stop
         offset="0"
         style="stop-color:#E91100"
         id="stop2251" />
      <stop
         offset="1"
         style="stop-color:#B30000"
         id="stop2253" />
    </linearGradient>
  </defs>
  <sodipodi:namedview
     pagecolor="#ffffff"
     bordercolor="#666666"
     inkscape:document-rotation="0"
     borderopacity="1"
     objecttolerance="10"
     gridtolerance="10"
     guidetolerance="10"
     inkscape:pageopacity="0"
     inkscape:pageshadow="2"
     inkscape:window-width="1361"
     inkscape:window-height="947"
     id="namedview839"
     showgrid="false"
     inkscape:zoom="15.708333"
     inkscape:cx="24"
     inkscape:cy="24"
     inkscape:window-x="1839"
     inkscape:window-y="112"
     inkscape:window-maximized="0"
     inkscape:current-layer="svg837"
     showguides="true"
     inkscape:guide-bbox="true">
    <sodipodi:guide
       position="16.806366,7.8302387"
       orientation="0,-1"
       id="guide971" />
  </sodipodi:namedview>
  <path
     inkscape:connector-curvature="0"
     id="text2096"
     class="fil7"
     d="m 21.03952,27.873503 -0.268865,2.105003 h -0.906222 c -2.426676,0 -4.008134,-0.360665 -4.744382,-1.081798 -0.726546,-0.721128 -0.952309,-2.158746 -0.6771,-4.312441 l 0.446116,-3.493729 c 0.188074,-1.471555 0.05503,-2.489927 -0.399098,-3.055254 -0.454141,-0.565154 -1.373051,-0.847825 -2.756923,-0.847825 h -0.891674 l 0.266998,-2.09026 h 0.891674 c 1.393572,0 2.384136,-0.277823 2.971679,-0.833271 0.598364,-0.565337 0.990368,-1.573992 1.175835,-3.02598 L 16.595532,7.7294781 C 16.870742,5.5757816 17.46295,4.1432049 18.37254,3.4317839 19.292939,2.7106454 20.966391,2.350171 23.393052,2.3499876 h 0.906412 l -0.266996,2.090443 h -0.99411 c -1.374163,0 -2.298111,0.2143819 -2.77184,0.6431457 -0.473917,0.4289487 -0.798565,1.3303229 -0.973952,2.7044848 l -0.463092,3.6252719 c -0.195352,1.529958 -0.56142,2.64105 -1.098031,3.332894 -0.527093,0.69203 -1.342074,1.159791 -2.445147,1.403461 1.048211,0.263076 1.747325,0.740539 2.097542,1.432567 0.350027,0.691835 0.428014,1.798087 0.233974,3.318347 l -0.463098,3.62527 c -0.175571,1.374164 -0.08116,2.275528 0.283229,2.704302 0.364206,0.428767 1.233491,0.643336 2.607664,0.643336 h 0.99392 z"
     style="fill:#000000;fill-opacity:1;fill-rule:evenodd;stroke-width:0.156735" />
  <path
     inkscape:connector-curvature="0"
     id="text2100"
     class="fil8"
     d="m 13.506305,27.873503 -0.268866,2.105003 h -0.906222 c -2.4266647,0 -4.0081209,-0.360665 -4.7443684,-1.081798 C 6.8602966,28.17558 6.6345337,26.737962 6.9097432,24.584267 L 7.3558575,21.090538 C 7.5439314,19.618983 7.4108989,18.600611 6.9567603,18.035284 6.5026269,17.47013 5.5837178,17.187459 4.199837,17.187459 H 3.3081685 l 0.2669969,-2.09026 h 0.8916685 c 1.3935729,0 2.3841372,-0.277823 2.97168,-0.833271 0.5983649,-0.565337 0.9903745,-1.573992 1.1758338,-3.02598 L 9.0623309,7.7294781 C 9.3375407,5.5757816 9.9297485,4.1432049 10.839322,3.4317839 11.759729,2.7106454 13.433175,2.350171 15.859839,2.3499876 h 0.906415 l -0.266998,2.090443 H 15.50515 c -1.374171,0 -2.298115,0.2143819 -2.771856,0.6431457 -0.47391,0.4289487 -0.798565,1.3303229 -0.973952,2.7044848 l -0.463093,3.6252719 c -0.195347,1.529958 -0.561421,2.64105 -1.098025,3.332894 -0.5270911,0.69203 -1.3420798,1.159791 -2.4451461,1.403461 1.0482169,0.263076 1.747324,0.740539 2.0975413,1.432567 0.3500278,0.691835 0.4280218,1.798087 0.2339748,3.318347 l -0.4630924,3.62527 c -0.1755711,1.374164 -0.081163,2.275528 0.28323,2.704302 0.3642064,0.428767 1.2334844,0.643336 2.6076504,0.643336 h 0.993919 z"
     style="fill:#000000;fill-opacity:1;fill-rule:evenodd;stroke-width:0.156735;opacity:0.3" />
  <path
     inkscape:connector-curvature="0"
     id="text2104"
     class="fil9"
     d="m 24.842537,27.87351 h 1.023209 c 1.364287,0 2.277975,-0.209719 2.740684,-0.628596 0.472609,-0.419059 0.798012,-1.325466 0.976004,-2.71904 l 0.462908,-3.625267 c 0.19423,-1.520265 0.554709,-2.626499 1.081612,-3.31835 0.526907,-0.69203 1.348045,-1.169487 2.463429,-1.432565 -1.050638,-0.24367 -1.751071,-0.71143 -2.101087,-1.40346 -0.350217,-0.691845 -0.427649,-1.802937 -0.232112,-3.332895 L 31.720093,7.7880686 C 31.89678,6.4041989 31.802371,5.5026413 31.436866,5.0835811 31.082351,4.6548173 30.222959,4.4404369 28.858498,4.4404369 H 27.835283 L 28.10228,2.3499923 h 0.920963 c 2.426677,1.567e-4 3.998244,0.3606578 4.715086,1.0817901 0.727668,0.7114335 0.95399,2.1440071 0.678965,4.2977006 l -0.447975,3.508473 c -0.185466,1.45197 -0.05132,2.460632 0.402826,3.025977 0.455258,0.555447 1.374917,0.833268 2.758786,0.833268 h 0.906223 l -0.267,2.090262 h -0.906222 c -1.383875,0 -2.374992,0.282672 -2.973538,0.847821 -0.598368,0.56534 -0.991682,1.583704 -1.179563,3.055259 l -0.446115,3.49373 c -0.275212,2.153695 -0.868166,3.591313 -1.778685,4.312443 -0.901183,0.721133 -2.564934,1.081798 -4.991417,1.081798 h -0.920962 l 0.268867,-2.105006 z"
     style="fill:#000000;fill-opacity:1;fill-rule:evenodd;stroke-width:0.156735" />
  <path
     inkscape:connector-curvature="0"
     id="text2108"
     class="fil10"
     d="m 32.377632,27.87351 h 1.02321 c 1.364465,0 2.277979,-0.209719 2.740869,-0.628596 0.472611,-0.419059 0.797824,-1.325466 0.975818,-2.71904 l 0.463096,-3.625267 c 0.194042,-1.520265 0.554704,-2.626499 1.081613,-3.31835 0.526901,-0.69203 1.348046,-1.169487 2.463424,-1.432565 -1.050634,-0.24367 -1.751053,-0.71143 -2.101269,-1.40346 -0.350218,-0.691845 -0.427463,-1.802937 -0.23211,-3.332895 L 39.255378,7.7880686 C 39.432071,6.4041989 39.337659,5.5026413 38.972149,5.0835811 38.617645,4.6548173 37.758068,4.4404369 36.393782,4.4404369 h -1.023206 l 0.266996,-2.0904446 h 0.920961 c 2.426482,1.567e-4 3.998244,0.3606578 4.7149,1.0817901 0.727853,0.7114335 0.954175,2.1440071 0.679154,4.2977006 l -0.448173,3.508473 c -0.185455,1.45197 -0.05112,2.460632 0.403015,3.025977 0.455256,0.555447 1.374735,0.833268 2.758598,0.833268 h 0.906412 l -0.267001,2.090262 h -0.906407 c -1.383868,0 -2.374992,0.282672 -2.973352,0.847821 -0.598554,0.56534 -0.991674,1.583704 -1.179565,3.055259 l -0.446301,3.49373 c -0.275025,2.153695 -0.867978,3.591313 -1.77868,4.312443 -0.901001,0.721133 -2.56474,1.081798 -4.991417,1.081798 h -0.920969 l 0.268867,-2.105006 z"
     style="fill:#000000;fill-opacity:1;fill-rule:evenodd;stroke-width:0.156735;opacity:0.3" />
  <path
     inkscape:connector-curvature="0"
     d="m 37.350451,37.348402 v -4 l 8,6.827586 -8,7.172414 v -4 h -8 v -6 z"
     id="path833"
     sodipodi:nodetypes="cccccccc" />
  <path
     id="path969"
     d="m 11.622336,37.425675 v -4 l -8.0000001,6.763926 8.0000001,7.236074 v -4 h 8 v -6 z"
     inkscape:connector-curvature="0"
     sodipodi:nodetypes="cccccccc" />
</svg>
