<?xml version="1.0" encoding="UTF-8" standalone="no"?>
<svg
   xmlns:dc="http://purl.org/dc/elements/1.1/"
   xmlns:cc="http://creativecommons.org/ns#"
   xmlns:rdf="http://www.w3.org/1999/02/22-rdf-syntax-ns#"
   xmlns:svg="http://www.w3.org/2000/svg"
   xmlns="http://www.w3.org/2000/svg"
   xmlns:sodipodi="http://sodipodi.sourceforge.net/DTD/sodipodi-0.dtd"
   xmlns:inkscape="http://www.inkscape.org/namespaces/inkscape"
   width="48"
   height="48"
   viewBox="0 0 48 48"
   version="1.1"
   id="svg837"
   sodipodi:docname="visible.svg"
   inkscape:version="0.92+devel (4eade15e6d, 2018-11-22, custom)">
  <metadata
     id="metadata843">
    <rdf:RDF>
      <cc:Work
         rdf:about="">
        <dc:format>image/svg+xml</dc:format>
        <dc:type
           rdf:resource="http://purl.org/dc/dcmitype/StillImage" />
        <dc:title></dc:title>
      </cc:Work>
    </rdf:RDF>
  </metadata>
  <defs
     id="defs841" />
  <sodipodi:namedview
     pagecolor="#ffffff"
     bordercolor="#666666"
     inkscape:document-rotation="0"
     borderopacity="1"
     objecttolerance="10"
     gridtolerance="10"
     guidetolerance="10"
     inkscape:pageopacity="0"
     inkscape:pageshadow="2"
     inkscape:window-width="1600"
     inkscape:window-height="1145"
     id="namedview839"
     showgrid="false"
     inkscape:zoom="19.726744"
     inkscape:cx="24"
     inkscape:cy="24.506926"
     inkscape:window-x="0"
     inkscape:window-y="27"
     inkscape:window-maximized="1"
     inkscape:current-layer="svg837" />
  <path
     d="M0 0h48v48H0z"
     fill="none"
     id="path833" />
  <path
     d="M24 9C14 9 5.46 15.22 2 24c3.46 8.78 12 15 22 15s18.54-6.22 22-15C42.54 15.22 34.01 9 24 9zm0 25c-5.52 0-10-4.48-10-10s4.48-10 10-10 10 4.48 10 10-4.48 10-10 10zm0-16c-3.31 0-6 2.69-6 6s2.69 6 6 6 6-2.69 6-6-2.69-6-6-6z"
     id="path835" />
  <g
     id="g881">
    <rect
       y="3.720902"
       x="20.654076"
       height="7.8613586"
       width="6.5129628"
       id="rect845"
       style="color:#000000;overflow:visible;fill:#000000;stroke-width:2" />
    <g
       id="g866">
      <rect
         y="10.213342"
         x="6.1017709"
         height="7.8613586"
         width="6.5129628"
         id="rect856"
         style="color:#000000;overflow:visible;fill:#000000;stroke-width:2"
         transform="rotate(-22.781306)" />
      <rect
         style="color:#000000;overflow:visible;fill:#000000;stroke-width:2"
         id="rect858"
         width="6.5129628"
         height="7.8613586"
         x="-9.436018"
         y="11.014866"
         transform="rotate(-44.265382)" />
    </g>
    <g
       transform="matrix(-1,0,0,1,47.821111,0)"
       id="g872">
      <rect
         transform="rotate(-22.781306)"
         style="color:#000000;overflow:visible;fill:#000000;stroke-width:2"
         id="rect868"
         width="6.5129628"
         height="7.8613586"
         x="6.1017709"
         y="10.213342" />
      <rect
         transform="rotate(-44.265382)"
         y="11.014866"
         x="-9.436018"
         height="7.8613586"
         width="6.5129628"
         id="rect870"
         style="color:#000000;overflow:visible;fill:#000000;stroke-width:2" />
    </g>
  </g>
</svg>
