<?xml version="1.0" encoding="UTF-8" standalone="no"?>
<svg
   xmlns:dc="http://purl.org/dc/elements/1.1/"
   xmlns:cc="http://creativecommons.org/ns#"
   xmlns:rdf="http://www.w3.org/1999/02/22-rdf-syntax-ns#"
   xmlns:svg="http://www.w3.org/2000/svg"
   xmlns="http://www.w3.org/2000/svg"
   xmlns:sodipodi="http://sodipodi.sourceforge.net/DTD/sodipodi-0.dtd"
   xmlns:inkscape="http://www.inkscape.org/namespaces/inkscape"
   width="24"
   height="24"
   viewBox="0 0 24 24"
   version="1.1"
   id="svg835"
   sodipodi:docname="zoom.svg"
   inkscape:version="0.92+devel (4eade15e6d, 2018-11-22, custom)">
  <metadata
     id="metadata841">
    <rdf:RDF>
      <cc:Work
         rdf:about="">
        <dc:format>image/svg+xml</dc:format>
        <dc:type
           rdf:resource="http://purl.org/dc/dcmitype/StillImage" />
        <dc:title></dc:title>
      </cc:Work>
    </rdf:RDF>
  </metadata>
  <defs
     id="defs839" />
  <sodipodi:namedview
     pagecolor="#ffffff"
     bordercolor="#666666"
     inkscape:document-rotation="0"
     borderopacity="1"
     objecttolerance="10"
     gridtolerance="10"
     guidetolerance="10"
     inkscape:pageopacity="0"
     inkscape:pageshadow="2"
     inkscape:window-width="810"
     inkscape:window-height="480"
     id="namedview837"
     showgrid="false"
     inkscape:zoom="10.391042"
     inkscape:cx="12"
     inkscape:cy="12"
     inkscape:window-x="10"
     inkscape:window-y="35"
     inkscape:window-maximized="0"
     inkscape:current-layer="svg835" />
  <path
     d="M 15.5,14 H 14.71 L 14.43,13.73 C 15.41,12.59 16,11.11 16,9.5 16,5.91 13.09,3 9.5,3 5.91,3 3,5.91 3,9.5 3,13.09 5.91,16 9.5,16 c 1.61,0 3.09,-0.59 4.23,-1.57 L 14,14.71 v 0.79 l 5,4.99 1.49,-1.49 z m -6,0 C 7.01,14 5,11.99 5,9.5 5,7.01 7.01,5 9.5,5 11.99,5 14,7.01 14,9.5 14,11.99 11.99,14 9.5,14 Z"
     id="path833"
     inkscape:connector-curvature="0"
     sodipodi:nodetypes="cccssssccccccsssss" />
</svg>
